# xmcd
#
# Track frame offsets: 
#        300
#        16162
#        34246
#        53275
#        70375
#        87634
#        100884
#        125814
#        145736
#        165869
#        179330
#        195908
#        219113
#        233647
#
# Disc length: 3553 seconds
#
# Revision: 2
# Processed by: cddbd v1.5.2PL0 Copyright (c) Steve Scherf et al.
# Submitted via: ExactAudioCopy v1.0b1
#
DISCID=b20ddd0e
DTITLE=Robert Cray - Heavy Picks
DYEAR=1999
DGENRE=Blues
TTITLE0=Phone Booth
TTITLE1=Forecast (Calls For Pain)
TTITLE2=Smoking Gun
TTITLE3=Playin' In The Dirt
TTITLE4=Don't Be Afraid Of The Dark
TTITLE5=Too Many Cooks
TTITLE6=The Dream
TTITLE7=Right Next Door (Because Of Me)
TTITLE8=Consequences
TTITLE9=Bad Influence
TTITLE10=I Guess I Showed Her
TTITLE11=I Shiver
TTITLE12=Trick Or Treat
TTITLE13=I Was Warned
EXTD=
EXTT0=
EXTT1=
EXTT2=
EXTT3=
EXTT4=
EXTT5=
EXTT6=
EXTT7=
EXTT8=
EXTT9=
EXTT10=
EXTT11=
EXTT12=
EXTT13=
PLAYORDER=
